<?xml version="1.0" encoding="UTF-8"?>
<!DOCTYPE svg PUBLIC "-//W3C//DTD SVG 1.1//EN" "http://www.w3.org/Graphics/SVG/1.1/DTD/svg11.dtd">
<!-- Creator: CorelDRAW X5 -->
<svg xmlns="http://www.w3.org/2000/svg" xml:space="preserve" width="220px" height="72px" style="shape-rendering:geometricPrecision; text-rendering:geometricPrecision; image-rendering:optimizeQuality; fill-rule:evenodd; clip-rule:evenodd"
viewBox="0 0 220 72"
 xmlns:xlink="http://www.w3.org/1999/xlink">
 <defs>
  <style type="text/css">
   <![CDATA[
    .fil0 {fill:none}
    .fil1 {fill:#1D1819;fill-rule:nonzero}
   ]]>
  </style>
 </defs>
 <g id="Layer_x0020_1">
  <metadata id="CorelCorpID_0Corel-Layer"/>
  <rect class="fil0" width="220" height="72"/>
 </g>
 <g id="Layer_x0020_1_0">
  <metadata id="CorelCorpID_1Corel-Layer"/>
  <path class="fil1" d="M41 52c0,6 -2,10 -6,14 -4,4 -8,6 -14,6 -6,0 -10,-2 -14,-6 -4,-4 -6,-9 -6,-14 0,-6 2,-10 6,-14 4,-4 9,-6 14,-6 6,0 10,2 14,6 4,4 6,9 6,14zm-6 0c0,-4 -1,-7 -4,-10 -2,-3 -6,-4 -10,-4 -4,0 -7,1 -10,4 -2,3 -4,6 -4,10 0,4 1,7 4,10 2,2 6,4 10,4 4,0 7,-1 10,-4 2,-3 4,-6 4,-10zm60 15c0,1 -1,2 -2,3 -1,1 -2,2 -3,2 -1,0 -3,-1 -4,-2 -1,-1 -2,-2 -2,-4 0,-1 0,-1 -1,-1 0,0 0,0 -1,0 -2,2 -4,4 -6,4 -2,1 -5,2 -7,2 -2,0 -5,-1 -7,-2 -3,-2 -6,-4 -8,-7 -2,-3 -3,-7 -3,-11 0,-5 2,-10 5,-14 4,-4 8,-6 13,-6 2,0 4,0 7,1 3,1 6,1 7,1 1,0 2,0 3,-1 1,-1 2,-1 2,-1 2,0 2,1 2,2 0,1 0,2 -1,3 -1,3 -1,7 -1,11l0 10c0,3 1,5 2,5 1,0 2,0 2,1 1,1 1,2 1,2l0 0zm-11 -19c0,-4 -2,-6 -5,-8 -2,-1 -6,-2 -10,-2 -3,0 -6,1 -9,4 -2,3 -3,6 -3,9 0,4 1,7 4,10 2,2 6,4 10,4 2,0 3,0 5,-1 5,-3 8,-8 8,-16l0 0zm33 19c0,1 -1,2 -2,3 -1,1 -2,2 -3,2 -1,0 -3,-1 -4,-2 -1,-1 -2,-3 -2,-4l0 -53c0,-3 -1,-5 -2,-5 -1,0 -2,0 -2,-1 -1,-1 -1,-2 -1,-2 0,-1 1,-2 2,-3 1,-1 2,-2 3,-2 2,0 3,1 4,2 1,1 2,3 2,4l0 53c0,3 1,5 2,5 1,0 2,0 2,1 1,1 1,2 1,2l0 0zm49 0c0,1 -1,2 -2,3 -1,1 -2,2 -3,2 -1,0 -3,-1 -4,-2 -1,-1 -2,-2 -2,-4 0,-1 0,-1 -1,-1 0,0 0,0 -1,0 -2,2 -4,4 -6,4 -2,1 -5,2 -7,2 -2,0 -5,-1 -7,-2 -3,-2 -6,-4 -8,-7 -2,-3 -3,-7 -3,-11 0,-5 2,-10 5,-14 4,-4 8,-6 13,-6 2,0 4,0 7,1 3,1 6,1 7,1 1,0 2,0 3,-1 1,-1 2,-1 2,-1 2,0 2,1 2,2 0,1 0,2 -1,3 -1,3 -1,7 -1,11l0 10c0,3 1,5 2,5 1,0 2,0 2,1 1,1 1,2 1,2l0 0zm-11 -19c0,-4 -2,-6 -5,-8 -2,-1 -6,-2 -10,-2 -3,0 -6,1 -9,4 -2,3 -3,6 -3,9 0,4 1,7 4,10 2,2 6,4 10,4 2,0 3,0 5,-1 5,-3 8,-8 8,-16l0 0zm63 19c0,1 -1,2 -2,3 -1,1 -2,2 -3,2 -2,0 -3,-1 -4,-2 -1,-1 -2,-3 -2,-4l0 -14c0,-4 -1,-7 -3,-9 -2,-3 -5,-4 -9,-4 -1,0 -2,0 -4,1 -5,3 -8,7 -8,12l0 8c0,2 0,4 1,5 1,2 1,3 1,4 0,2 -2,3 -5,3 -3,0 -4,-2 -4,-6l0 -53c0,-3 -1,-5 -2,-5 -1,0 -2,0 -2,-1 -1,-1 -1,-2 -1,-2 0,-1 1,-2 2,-3 1,-1 2,-2 3,-2 2,0 3,1 4,2 1,1 2,3 2,4l0 31c0,1 0,2 1,2 0,0 1,0 2,-1 2,-2 4,-3 5,-4 2,-1 4,-1 6,-1 4,0 8,2 11,6 3,4 4,8 4,13l0 8c0,3 1,5 2,5 1,0 2,0 2,1 1,1 1,2 1,2l0 0z"/>
 </g>
</svg>
